<?xml version="1.0" encoding="UTF-8" standalone="no"?> <svg width="64" height="64" viewBox="0 0 64 64" fill="none" xmlns="http://www.w3.org/2000/svg">
<path d="M59 46H55V60H59V46Z" fill="#79BD9A"/>
<path d="M9 46H5V60H9V46Z" fill="#79BD9A"/>
<path d="M19 46H15V60H19V46Z" fill="#79BD9A"/>
<path d="M49 46H45V60H49V46Z" fill="#79BD9A"/>
<path d="M53 16H11V42H53V16Z" fill="#79BD9A"/>
<path d="M53 31H11V36H53V31Z" fill="#A8DBA8"/>
<path d="M53 26H11V31H53V26Z" fill="#79BD9A"/>
<path d="M53 21H11V26H53V21Z" fill="#A8DBA8"/>
<path d="M61 42H3V46H61V42Z" fill="white"/>
<path d="M3 61V56L9.2 55.047C13.6706 54.359 18.2408 54.746 22.532 56.176V56.176C28.0469 58.0127 33.9918 58.1174 39.568 56.476L39.784 56.412C45.1441 54.8351 50.8496 54.8699 56.19 56.512L61 58V61H3Z" fill="white"/>
<path d="M14 3H50C50.5304 3 51.0391 3.21071 51.4142 3.58579C51.7893 3.96086 52 4.46957 52 5V7H12V5C12 4.46957 12.2107 3.96086 12.5858 3.58579C12.9609 3.21071 13.4696 3 14 3Z" fill="white"/>
<path d="M57 16H7L12 7H52L57 16Z" fill="white"/>
<path d="M37 25H27V42H37V25Z" fill="white"/>
<path d="M49 25H41V32H49V25Z" fill="white"/>
<path d="M23 25H15V32H23V25Z" fill="white"/>
<path d="M57 16H7L12 7H16.23C16.2502 8.59713 16.8985 10.1221 18.0344 11.2449C19.1704 12.3678 20.7027 12.9983 22.3 13H55.33L57 16Z" fill="#CFF09E"/>
<path d="M52 5V7H12V5C12.0016 4.47005 12.2128 3.96227 12.5875 3.58753C12.9623 3.2128 13.4701 3.00158 14 3H16C16.0016 3.52995 16.2128 4.03773 16.5875 4.41247C16.9623 4.7872 17.4701 4.99842 18 5H52Z" fill="#CFF09E"/>
<path d="M61 44V46H3V42H5C5.00158 42.5299 5.2128 43.0377 5.58753 43.4125C5.96227 43.7872 6.47005 43.9984 7 44H61Z" fill="#CFF09E"/>
<path d="M3 61V58L9.2 57.047C13.6706 56.359 18.2408 56.746 22.532 58.176V58.176C28.0469 60.0127 33.9918 60.1174 39.568 58.476L39.784 58.412C45.1441 56.8351 50.8496 56.8699 56.19 58.512L61 60V61H3Z" fill="#CFF09E"/>
<path d="M27 25V42H37V25H27ZM35 38C33.4087 38 31.8826 37.3679 30.7574 36.2426C29.6321 35.1174 29 33.5913 29 32V27H33C33.5299 27.0016 34.0377 27.2128 34.4125 27.5875C34.7872 27.9623 34.9984 28.4701 35 29V38Z" fill="#CFF09E"/>
<path d="M15 25V32H23V25H15ZM21 30H18.93C18.5567 29.0336 18.2983 28.0267 18.16 27H19C19.5299 27.0016 20.0377 27.2128 20.4125 27.5875C20.7872 27.9623 20.9984 28.4701 21 29V30Z" fill="#CFF09E"/>
<path d="M41 25V32H49V25H41ZM47 30H45C44.4696 30 43.9609 29.7893 43.5858 29.4142C43.2107 29.0391 43 28.5304 43 28V27H45C45.5304 27 46.0391 27.2107 46.4142 27.5858C46.7893 27.9609 47 28.4696 47 29V30Z" fill="#CFF09E"/>
<path d="M61 35H54V17H57C57.1742 17 57.3453 16.9545 57.4965 16.868C57.6477 16.7816 57.7737 16.6571 57.862 16.507C57.9503 16.3568 57.9979 16.1862 58 16.0121C58.0021 15.8379 57.9586 15.6662 57.874 15.514L53 6.741V5C53 4.20435 52.6839 3.44129 52.1213 2.87868C51.5587 2.31607 50.7956 2 50 2H14C13.2043 2 12.4413 2.31607 11.8787 2.87868C11.3161 3.44129 11 4.20435 11 5V6.741L6.12599 15.514C6.04134 15.6662 5.99791 15.8379 6.00002 16.0121C6.00212 16.1862 6.04968 16.3568 6.13798 16.507C6.22628 16.6571 6.35227 16.7816 6.50346 16.868C6.65465 16.9545 6.82581 17 6.99999 17H9.99998V35H2.99999C2.73477 35 2.48041 35.1054 2.29288 35.2929C2.10534 35.4804 1.99999 35.7348 1.99999 36V46C1.99999 46.2652 2.10534 46.5196 2.29288 46.7071C2.48041 46.8946 2.73477 47 2.99999 47H3.99998V54.834L2.84799 55.012C2.71443 55.0273 2.58533 55.0693 2.46839 55.1356C2.35146 55.2019 2.24909 55.2911 2.1674 55.3978C2.08571 55.5046 2.02639 55.6267 1.99297 55.7569C1.95956 55.8871 1.95273 56.0227 1.97291 56.1556C1.99308 56.2885 2.03985 56.416 2.1104 56.5304C2.18096 56.6448 2.27386 56.7438 2.38355 56.8215C2.49324 56.8992 2.61747 56.954 2.74881 56.9826C2.88016 57.0112 3.01592 57.0131 3.14799 56.988L9.34798 56.035C13.6619 55.3763 18.0705 55.7498 22.212 57.125C23.7732 57.6415 25.3747 58.0268 27 58.277V61C27 61.2652 27.1053 61.5196 27.2929 61.7071C27.4804 61.8946 27.7348 62 28 62C28.2652 62 28.5196 61.8946 28.7071 61.7071C28.8946 61.5196 29 61.2652 29 61V58.527C30.9981 58.6992 33.0087 58.6657 35 58.427V61C35 61.2652 35.1053 61.5196 35.2929 61.7071C35.4804 61.8946 35.7348 62 36 62C36.2652 62 36.5196 61.8946 36.7071 61.7071C36.8946 61.5196 37 61.2652 37 61V58.109C37.955 57.928 38.906 57.717 39.848 57.44L40.064 57.376C45.2355 55.8506 50.7422 55.8854 55.894 57.476L60.706 58.957C60.8315 58.9956 60.9634 59.0091 61.0942 58.9967C61.225 58.9844 61.352 58.9464 61.4681 58.8849C61.5842 58.8234 61.687 58.7397 61.7707 58.6385C61.8544 58.5373 61.9174 58.4205 61.956 58.295C61.9946 58.1695 62.0081 58.0375 61.9957 57.9068C61.9833 57.776 61.9453 57.649 61.8839 57.5329C61.8224 57.4168 61.7387 57.314 61.6375 57.2303C61.5362 57.1466 61.4195 57.0836 61.294 57.045L60 56.646V47H61C61.2652 47 61.5196 46.8946 61.7071 46.7071C61.8946 46.5196 62 46.2652 62 46V36C62 35.7348 61.8946 35.4804 61.7071 35.2929C61.5196 35.1054 61.2652 35 61 35ZM60 41H58V37H60V41ZM54 41V37H56V41H54ZM50 41V37H52V41H50ZM46 41V37H48V41H46ZM42 41V37H44V41H42ZM38 41V32H40C40 32.2652 40.1053 32.5196 40.2929 32.7071C40.4804 32.8946 40.7348 33 41 33H49C49.2652 33 49.5196 32.8946 49.7071 32.7071C49.8946 32.5196 50 32.2652 50 32H52V35H41C40.7348 35 40.4804 35.1054 40.2929 35.2929C40.1053 35.4804 40 35.7348 40 36V41H38ZM24 41V36C24 35.7348 23.8946 35.4804 23.7071 35.2929C23.5196 35.1054 23.2652 35 23 35H12V32H14C14 32.2652 14.1053 32.5196 14.2929 32.7071C14.4804 32.8946 14.7348 33 15 33H23C23.2652 33 23.5196 32.8946 23.7071 32.7071C23.8946 32.5196 24 32.2652 24 32H26V41H24ZM16 41V37H18V41H16ZM12 41V37H14V41H12ZM7.99999 41V37H9.99998V41H7.99999ZM12 17H52V20H12V17ZM52 30H50V27H52V30ZM41 24C40.7348 24 40.4804 24.1054 40.2929 24.2929C40.1053 24.4804 40 24.7348 40 25H38C38 24.7348 37.8946 24.4804 37.7071 24.2929C37.5196 24.1054 37.2652 24 37 24H27C26.7348 24 26.4804 24.1054 26.2929 24.2929C26.1053 24.4804 26 24.7348 26 25H24C24 24.7348 23.8946 24.4804 23.7071 24.2929C23.5196 24.1054 23.2652 24 23 24H15C14.7348 24 14.4804 24.1054 14.2929 24.2929C14.1053 24.4804 14 24.7348 14 25H12V22H52V25H50C50 24.7348 49.8946 24.4804 49.7071 24.2929C49.5196 24.1054 49.2652 24 49 24H41ZM48 26V31H42V26H48ZM40 30H38V27H40V30ZM26 30H24V27H26V30ZM22 26V31H16V26H22ZM14 30H12V27H14V30ZM20 37H22V41H20V37ZM28 26H36V41H28V26ZM13 5C13 4.73478 13.1053 4.48043 13.2929 4.29289C13.4804 4.10536 13.7348 4 14 4H50C50.2652 4 50.5196 4.10536 50.7071 4.29289C50.8946 4.48043 51 4.73478 51 5V6H13V5ZM12.588 8H51.412L55.3 15H52.65L50.694 10.594C50.5863 10.3516 50.3867 10.1619 50.1392 10.0666C49.8916 9.97135 49.6164 9.97832 49.374 10.086C49.1316 10.1937 48.9419 10.3932 48.8466 10.6408C48.7513 10.8883 48.7583 11.1636 48.866 11.406L50.462 15H47.721L46.279 10.683C46.1949 10.431 46.0142 10.2228 45.7766 10.1041C45.539 9.98538 45.2639 9.96593 45.012 10.05C44.76 10.1341 44.5518 10.3148 44.4331 10.5524C44.3144 10.79 44.2949 11.065 44.379 11.317L45.611 15H42.8L41.864 10.783C41.8024 10.5283 41.6434 10.3079 41.421 10.1693C41.1986 10.0306 40.9307 9.98483 40.6749 10.0417C40.4191 10.0986 40.1959 10.2536 40.0532 10.4734C39.9105 10.6932 39.8598 10.9602 39.912 11.217L40.754 15H37.894L37.434 10.889C37.4194 10.7585 37.3793 10.6321 37.3158 10.5171C37.2524 10.402 37.167 10.3006 37.0644 10.2186C36.9618 10.1367 36.844 10.0757 36.7178 10.0392C36.5916 10.0027 36.4595 9.99142 36.329 10.006C36.1984 10.0206 36.0721 10.0607 35.957 10.1241C35.842 10.1876 35.7406 10.273 35.6586 10.3756C35.5766 10.4782 35.5157 10.596 35.4792 10.7222C35.4427 10.8483 35.4314 10.9805 35.446 11.111L35.882 15H33V11C33 10.7348 32.8946 10.4804 32.7071 10.2929C32.5196 10.1054 32.2652 10 32 10C31.7348 10 31.4804 10.1054 31.2929 10.2929C31.1053 10.4804 31 10.7348 31 11V15H28.118L28.554 11.111C28.5686 10.9805 28.5573 10.8483 28.5208 10.7222C28.4843 10.596 28.4233 10.4782 28.3413 10.3756C28.2593 10.273 28.1579 10.1876 28.0429 10.1241C27.9279 10.0607 27.8015 10.0206 27.671 10.006C27.5405 9.99142 27.4083 10.0027 27.2821 10.0392C27.156 10.0757 27.0382 10.1367 26.9356 10.2186C26.833 10.3006 26.7475 10.402 26.6841 10.5171C26.6207 10.6321 26.5806 10.7585 26.566 10.889L26.106 15H23.246L24.086 11.217C24.1382 10.9602 24.0875 10.6932 23.9448 10.4734C23.8021 10.2536 23.5788 10.0986 23.323 10.0417C23.0672 9.98483 22.7993 10.0306 22.577 10.1693C22.3546 10.3079 22.1955 10.5283 22.134 10.783L21.2 15H18.389L19.619 11.317C19.6606 11.1922 19.6773 11.0605 19.668 10.9293C19.6587 10.7981 19.6237 10.6701 19.5649 10.5524C19.5061 10.4347 19.4247 10.3298 19.3254 10.2436C19.2261 10.1574 19.1107 10.0916 18.986 10.05C18.8612 10.0084 18.7295 9.99172 18.5983 10.001C18.4671 10.0103 18.339 10.0453 18.2214 10.1041C18.1037 10.1629 17.9988 10.2443 17.9126 10.3436C17.8264 10.4429 17.7606 10.5582 17.719 10.683L16.279 15H13.538L15.138 11.406C15.2457 11.1636 15.2526 10.8883 15.1574 10.6408C15.1102 10.5182 15.0393 10.4061 14.9489 10.3109C14.8584 10.2158 14.75 10.1393 14.63 10.086C14.3876 9.97832 14.1123 9.97135 13.8648 10.0666C13.6172 10.1619 13.4177 10.3516 13.31 10.594L11.35 15H8.69999L12.588 8ZM3.99998 37H5.99999V41H3.99998V37ZM5.99999 47H7.99999V54.219L5.99999 54.527V47ZM14 47V53.729C12.6634 53.7083 11.327 53.7788 9.99998 53.94V47H14ZM18 54.066C17.336 53.966 16.669 53.88 16 53.823V47H18V54.066ZM22.846 55.228C21.9111 54.9202 20.9612 54.6599 20 54.448V47H27V56.261C25.5907 56.0248 24.2018 55.6794 22.846 55.228V55.228ZM29 51H35V53H29V51ZM35 49H29V47H35V49ZM29 56.525V55H35V56.415C33.0101 56.6725 30.9979 56.7094 29 56.525V56.525ZM39.5 55.458L39.284 55.521C38.528 55.743 37.765 55.921 37 56.081V47H44V54.515C42.4777 54.7116 40.9731 55.0269 39.5 55.458V55.458ZM46 54.318V47H48V54.257C47.333 54.253 46.666 54.276 46 54.318ZM54 47V54.928C52.6817 54.6415 51.3452 54.446 50 54.343V47H54ZM58 56.031L56.481 55.563C56.322 55.514 56.16 55.481 56 55.434V47H58V56.031ZM60 45H3.99998V43H60V45Z" fill="#3B8686"/>
</svg>
